<svg width="293" height="294" viewBox="0 0 293 294" fill="none" xmlns="http://www.w3.org/2000/svg">
<mask id="mask0_59_1081" style="mask-type:alpha" maskUnits="userSpaceOnUse" x="0" y="0" width="293" height="293">
<circle cx="146.02" cy="146.353" r="146.02" fill="#D9D9D9"/>
</mask>
<g mask="url(#mask0_59_1081)">
<path d="M226.07 266.906C225.4 267.385 224.634 267.863 223.963 268.342C223.197 268.821 222.527 269.3 221.761 269.683C221.091 270.066 220.516 270.449 219.846 270.832C219.75 270.927 219.654 270.927 219.559 271.023C217.356 272.364 215.058 273.608 212.76 274.757C212.09 275.141 211.324 275.524 210.654 275.811C210.654 275.811 210.558 275.907 210.462 275.907C209.696 276.29 208.93 276.673 208.164 277.056C206.632 277.822 205.004 278.492 203.472 279.162C202.706 279.545 201.845 279.832 201.079 280.12C200.313 280.407 199.451 280.79 198.685 281.077C197.919 281.364 197.057 281.747 196.291 282.035C196.291 282.035 196.291 282.035 196.195 282.035C195.429 282.322 194.568 282.609 193.802 282.896C192.078 283.471 190.259 284.045 188.535 284.62C187.961 284.811 187.29 285.003 186.716 285.194C184.897 285.769 183.077 286.248 181.258 286.631C180.588 286.822 179.918 286.918 179.152 287.109C177.428 287.492 175.609 287.875 173.885 288.258C173.502 288.354 173.215 288.354 172.832 288.45C172.257 288.546 171.587 288.641 171.013 288.737C170.151 288.833 169.385 289.024 168.523 289.12C168.14 289.216 167.757 289.216 167.374 289.312C166.895 289.407 166.321 289.503 165.746 289.503C164.214 289.695 162.586 289.886 161.054 290.078C160.576 290.174 160.001 290.174 159.522 290.269H159.427C158.756 290.365 158.086 290.365 157.416 290.461C156.746 290.557 156.075 290.557 155.405 290.557C155.022 290.557 154.543 290.652 154.16 290.652C153.394 290.652 152.724 290.748 152.054 290.748C151.096 290.748 150.235 290.844 149.277 290.844C148.319 290.844 147.458 290.844 146.5 290.844C145.83 290.844 145.16 290.844 144.489 290.844C104.082 290.269 67.7924 273.13 41.8437 245.936C41.8437 245.936 41.8437 245.84 41.7479 245.84C38.8754 243.255 41.3649 229.467 52.9509 220.754C67.5051 209.742 102.359 202.848 102.359 202.848C102.359 202.848 115.86 200.646 165.938 211.083C195.238 217.211 217.548 226.116 229.996 250.245C232.581 255.224 235.166 262.884 226.07 266.906Z" fill="white"/>
<path d="M166.225 210.029C184.609 213.764 204.238 217.785 219.367 229.946C224.442 234.063 227.793 240.095 230.57 245.936C231.911 248.809 233.251 251.777 234.304 254.937C234.879 257.043 235.741 259.437 235.262 261.927C235.166 262.597 234.592 263.459 234.113 263.937C231.911 266.14 229.517 267.48 227.123 269.204C213.048 278.971 196.866 285.865 180.109 289.503C142.766 297.642 102.359 291.322 69.5159 271.693C58.6002 265.087 48.5463 257.043 39.9286 247.564C38.9711 246.415 38.9711 244.5 38.9711 243.255C39.0669 240.383 39.8329 237.606 40.7904 235.021C43.0884 229.084 46.0568 223.147 51.1316 219.03C54.7702 216.54 58.696 214.434 62.7175 212.71C75.3568 207.348 88.6662 203.614 102.359 202.082C103.508 201.986 103.699 203.614 102.55 203.805C89.4322 206.487 76.41 210.508 64.2496 215.966C59.845 218.168 55.1532 220.083 51.6103 223.53C48.259 227.169 45.8652 231.669 43.9502 236.265C42.7054 239.042 41.8437 243.447 42.2267 245.649C48.259 252.83 55.3447 259.15 63.0048 264.608C104.944 293.908 168.619 295.823 213.239 271.406C217.261 269.204 221.186 266.714 224.921 264.129C226.74 262.884 228.655 261.831 230.091 260.395C230.187 260.299 230.091 260.395 230.091 260.49C230.091 260.586 229.996 260.682 229.996 260.682C230.091 259.533 229.708 258.001 229.23 256.469C227.506 250.915 224.729 245.074 221.761 240C217.069 232.435 209.122 227.648 201.079 223.818C195.525 221.232 189.684 219.221 183.748 217.306C177.811 215.391 171.779 213.764 165.746 212.327C164.214 211.944 164.693 209.742 166.225 210.029Z" fill="black"/>
<path d="M87.0385 205.816C90.3898 211.753 103.125 235.595 105.136 256.66L117.009 260.682C117.009 260.682 108.008 220.849 91.9218 202.369C91.9218 202.369 90.0068 201.507 87.613 203.135C86.847 203.805 86.4639 204.859 87.0385 205.816Z" fill="black"/>
<path d="M188.918 256.948C188.918 256.948 189.492 230.424 178.002 212.998C177.715 212.519 178.098 211.849 178.672 211.944C179.438 212.136 180.587 212.423 182.407 213.285C185.471 214.721 195.429 229.946 196.291 254.937C196.291 254.841 189.875 256.948 188.918 256.948Z" fill="black"/>
<path d="M221.665 232.052C216.686 226.786 201.653 218.934 199.068 219.126C199.163 219.317 199.163 219.605 199.259 219.892C203.281 234.35 200.025 253.979 185.375 257.235C170.151 260.586 157.416 261.065 126.871 258.001C104.465 255.799 83.3995 235.691 72.6754 215.775C71.6221 213.764 70.3773 211.753 69.0368 209.934C68.2708 209.359 66.8345 209.455 65.7812 210.317C63.1002 212.519 59.5574 212.327 59.5574 214.434C59.5574 214.434 39.258 220.754 32.1724 265.278C28.1508 290.461 22.5015 323.112 22.31 334.219H240.336C238.804 319.282 240.336 252.735 221.665 232.052Z" fill="black"/>
<path d="M219.846 233.776C216.973 230.903 213.239 228.701 209.696 226.594C206.441 224.679 202.419 222.573 199.068 221.615L201.27 218.551L201.366 219.126C204.047 230.329 203.472 243.638 195.717 252.83C193.036 255.894 189.11 258.097 185.088 258.767C177.62 260.299 169.864 261.161 162.203 261.161C148.798 261.065 135.585 260.012 122.371 258.192C112.987 256.181 104.274 251.49 96.7094 245.649C86.0809 237.414 77.942 226.594 70.3777 215.583C69.3244 214.051 68.0796 212.615 66.7391 211.37L67.2179 211.944C67.4094 212.136 67.5051 212.04 67.4094 212.04C67.4094 212.04 67.2179 212.04 67.1221 212.136C67.0264 212.136 67.0264 212.136 66.9306 212.327C65.3986 213.668 62.909 214.338 61.377 215.2C61.4728 215.2 61.6643 214.625 61.6643 214.53L59.9407 216.828L59.6535 216.923L59.2705 217.115C46.1525 224.2 39.8329 241.053 36.3858 254.841C33.0345 270.544 31.0237 286.726 28.3427 302.525C26.8107 313.058 24.8956 323.878 24.4169 334.315L21.9273 331.825H240.337L237.943 334.506C235.932 307.983 236.986 254.171 219.846 233.776ZM223.485 230.424C241.965 251.968 240.816 306.068 242.826 334.028C242.922 335.368 241.965 336.613 240.624 336.709C240.528 336.9 22.4061 336.613 22.3103 336.709C20.9698 336.709 19.8208 335.655 19.8208 334.315C20.0123 328.665 20.7783 323.208 21.4486 317.846C23.6509 301.759 26.3319 285.769 28.9172 269.778C30.545 259.054 32.7473 248.043 37.0561 237.893C41.3649 227.839 47.7803 217.306 58.1215 212.423C58.313 212.327 58.5045 212.231 58.7917 212.136L57.0682 214.434C56.9724 211.082 60.611 210.221 62.909 209.263C64.4411 208.401 65.6858 207.157 67.6009 207.157C68.5584 207.061 70.2819 207.444 71.0479 208.593C72.3884 211.274 73.5375 213.955 74.6865 216.636C76.6015 220.945 79.0911 224.966 81.9636 228.701C92.3048 241.819 106.285 253.309 122.945 256.66C128.499 257.618 134.244 257.809 139.798 258.288C154.831 259.341 169.959 259.533 184.609 255.894C188.056 255.128 191.025 253.309 193.227 250.628C199.738 242.393 199.738 230.329 196.866 220.562L196.674 219.796C196.195 218.36 197.344 216.732 198.876 216.732C201.653 216.828 203.76 218.168 206.249 219.221C212.377 222.285 218.41 225.541 223.485 230.424Z" fill="black"/>
<path d="M191.217 267.576C175.513 274.279 123.903 275.811 97.6672 261.639C81.1022 252.734 70.378 233.105 65.2074 225.541C61.3773 219.796 59.4623 214.434 59.4623 214.434C59.4623 212.327 63.1008 212.519 65.6861 210.316C66.7394 209.455 68.1757 209.359 68.9417 209.933C70.2822 211.848 71.527 213.763 72.5803 215.774C83.3044 235.595 100.252 255.511 126.776 258.001C157.32 260.873 170.055 260.586 185.28 257.235C199.93 253.979 203.185 234.35 199.164 219.892C199.068 219.7 199.068 219.413 198.972 219.126C201.558 218.934 206.537 219.413 208.356 224.009C208.452 224.009 215.825 257.139 191.217 267.576Z" fill="white"/>
<path d="M191.791 268.916C185.471 271.502 178.864 272.459 172.257 273.225C165.651 273.991 159.044 274.278 152.437 274.278C135.872 274.087 119.02 272.555 103.412 266.618C85.6022 260.203 74.112 244.021 64.5368 228.701C61.6643 224.488 58.9832 220.179 57.3555 215.295C56.8767 214.051 57.6427 212.327 58.696 211.561C60.1323 210.412 61.76 210.412 63.1963 209.838C64.1538 209.55 64.7283 208.976 65.5901 208.497C67.1221 207.827 68.8457 207.252 70.7607 208.114C81.7721 232.148 99.8692 255.128 128.212 257.139C146.979 258.862 166.129 260.777 184.705 256.469C192.174 255.224 197.057 248.521 198.781 241.436C200.696 234.254 200.121 226.498 198.11 219.413C197.919 218.742 198.398 218.072 199.068 218.072C203.185 217.689 208.26 219.508 209.696 223.817C211.324 232.435 211.324 241.244 208.835 249.574C206.345 258.096 200.025 265.565 191.791 268.916ZM190.642 266.235C198.302 263.171 203.951 256.66 206.536 248.904C209.122 241.053 209.409 232.339 207.781 224.2C206.632 221.04 202.611 219.7 199.164 220.179L200.121 218.838C203.377 231.094 202.706 248.713 190.546 256.086C188.822 257.043 186.907 257.713 184.992 258.096C181.258 258.862 177.428 259.533 173.694 260.011C158.469 261.639 143.149 260.394 128.02 259.15C102.071 257.809 82.0594 237.414 70.9522 215.391C70.1862 213.668 69.3244 212.04 68.4626 210.316L68.6541 210.508C67.2179 209.646 65.6858 211.657 64.3453 212.136C63.1006 212.806 61.76 213.093 60.7068 213.763C60.5153 213.955 60.4195 214.146 60.4195 214.434V214.146C62.6218 220.179 66.6434 225.637 70.0904 230.999C78.8038 244.404 89.3365 257.905 104.848 263.458C126.488 272.076 168.427 274.183 190.642 266.235Z" fill="black"/>
<path d="M175.225 235.499C173.214 245.362 160.192 251.298 138.265 242.393C115.476 233.201 105.613 211.274 103.124 204.763C116.625 179.485 107.241 161.962 107.241 161.962C138.36 159.281 165.554 195.667 165.554 195.667L169.767 213.668C170.15 215.2 170.916 216.54 172.065 217.498C174.076 221.041 176.47 229.18 175.225 235.499Z" fill="white"/>
<path d="M102.646 205.05C104.465 202.273 105.614 199.018 106.38 195.858C107.816 189.251 108.295 182.549 108.391 175.846V173.356C108.103 170.867 107.242 168.282 106.284 165.984C105.039 162.919 109.54 161.004 110.976 164.068C111.167 164.451 111.167 165.122 111.167 165.505C111.455 178.527 112.029 195.284 103.795 206.103C103.22 206.678 102.071 205.816 102.646 205.05Z" fill="black"/>
<path d="M166.607 195.475C168.044 196.337 168.522 197.486 168.714 198.635C169.288 200.933 169.097 203.423 169.671 205.816C170.15 208.114 171.586 210.317 171.969 212.71C172.448 215.2 173.884 220.466 174.459 223.052C174.65 223.626 174.267 224.296 173.597 224.392C173.214 224.488 172.927 224.392 172.64 224.201C171.395 223.147 170.82 222.094 170.054 220.754C168.81 218.456 167.948 216.349 167.182 213.764C166.512 211.466 166.799 208.976 166.224 206.582C165.746 204.284 164.405 202.082 163.926 199.688C163.639 198.539 163.543 197.294 164.405 195.858C164.98 195.284 165.937 195.092 166.607 195.475Z" fill="black"/>
<path d="M173.502 220.754C155.213 219.796 140.276 214.051 125.722 188.102C137.978 198.922 152.436 203.04 167.661 204.955L169.672 213.764C170.055 215.296 172.353 219.796 173.502 220.754Z" fill="black"/>
<path d="M172.736 217.211C175.992 223.339 177.907 230.999 175.896 237.797C174.364 242.585 169.959 246.128 165.172 247.468C154.065 250.437 141.234 245.745 131.371 240.478C119.211 233.68 110.21 222.286 104.465 209.838C104.082 208.88 105.423 208.114 105.997 209.072C108.008 213.093 110.306 217.019 112.891 220.562C115.477 224.201 118.445 227.552 121.796 230.52C131.563 239.329 144.777 244.787 157.99 244.787C171.587 244.404 176.758 237.223 173.598 224.009C173.119 221.903 172.353 219.7 171.3 217.881C170.725 217.115 172.162 216.253 172.736 217.211Z" fill="black"/>
<path d="M209.792 102.213C211.515 110.256 212.377 116.767 207.685 138.216C203.089 159.568 214.292 163.973 187.769 198.156C176.949 212.136 150.713 208.21 129.456 193.752C122.275 188.868 119.211 176.325 113.848 167.42C109.635 160.43 107.72 167.707 102.167 161.675C94.6024 153.44 85.506 136.875 90.0063 107.575C97.2835 60.0823 134.914 54.5287 162.778 59.7951C190.833 65.1572 205.196 81.0519 209.792 102.213Z" fill="white"/>
<path d="M106.954 170.197C104.752 166.462 101.88 163.207 99.1985 159.76C96.6132 156.217 94.5067 152.291 92.7831 148.27C81.3887 120.31 85.7933 80.9562 113.753 64.4869C125.339 57.7843 139.318 56.1565 152.341 57.2098C180.204 59.2205 205.77 72.0513 211.802 101.543C215.058 114.565 210.653 127.97 208.164 140.705C207.015 147.025 207.972 153.536 207.877 160.047C207.781 166.654 205.962 173.261 203.472 179.389C201.94 183.602 199.259 187.336 196.482 190.783C191.886 196.337 187.29 201.986 181.449 206.295C180.109 207.253 177.715 207.731 176.087 207.923C171.587 208.593 167.182 208.785 162.682 208.497C145.064 207.731 126.2 199.209 119.115 182.166C118.828 181.495 119.785 181.017 120.168 181.591C129.36 196.145 146.213 203.327 162.969 204.284C168.14 204.572 173.406 204.476 178.481 203.423C180.97 202.178 183.173 199.975 185.279 197.965C190.45 192.794 195.716 187.24 199.45 180.921C203.951 172.399 206.44 163.111 205.674 153.44C205.483 149.131 205.387 144.631 206.249 140.322C207.015 136.013 207.972 131.896 208.547 127.491C209.121 123.278 209.409 118.97 209.409 114.756C208.93 102.405 204.908 89.6696 197.057 80.0944C179.726 58.5503 138.744 52.9009 115.668 67.6467C101.114 76.6473 94.3152 93.4996 92.1129 109.873C88.7616 129.502 89.7191 148.844 105.327 163.111L109.923 167.899C111.742 170.005 108.486 172.495 106.954 170.197Z" fill="black"/>
<path d="M118.253 139.748C118.253 139.748 115.284 125.385 101.305 127.108C89.24 128.64 85.0269 157.557 112.412 165.601" fill="white"/>
<path d="M111.167 153.057C108.965 151.812 107.433 149.706 107.337 147.121C107.433 145.206 107.72 143.003 107.242 141.088C106.954 139.269 105.039 138.79 103.603 138.886C102.071 139.173 101.114 141.088 100.826 142.62C100.826 142.716 100.731 143.003 100.731 143.099C100.635 143.578 99.8688 143.578 99.6773 143.099C98.4325 139.365 101.209 135.247 105.231 135.726C110.88 136.109 111.646 142.046 110.593 146.546C110.018 148.461 110.784 150.185 111.838 151.812L112.029 152.1C112.508 152.674 111.742 153.44 111.167 153.057Z" fill="black"/>
<path d="M187.769 129.598C189.205 136.396 191.886 142.716 195.237 148.652C198.205 155.93 190.545 162.824 183.747 162.536C182.981 162.536 182.885 161.483 183.555 161.292C187.864 159.951 191.79 157.079 192.46 152.674C192.748 151.333 192.365 150.184 191.694 149.035C188.535 143.099 186.62 136.3 187.098 129.598C187.098 129.119 187.769 129.119 187.769 129.598Z" fill="black"/>
<path d="M117.774 139.844C115.572 134.194 110.784 128.832 104.369 128.928C103.795 128.832 102.837 129.024 102.263 129.024C100.635 129.119 99.2942 129.694 98.0495 130.843C91.9214 136.971 92.9746 147.791 97.9537 154.589C99.6773 156.983 101.88 159.09 104.369 160.813C106.859 162.537 109.635 163.877 112.604 165.026C113.274 165.218 112.987 166.271 112.316 166.175C105.901 164.835 99.773 161.675 95.5599 156.409C89.0488 148.557 87.7083 135.439 95.4642 127.779C97.1877 126.247 99.5815 125.098 101.975 125.098C102.741 125.098 103.89 124.906 104.656 125.098C108.678 125.289 112.508 127.3 114.998 130.46C117.2 133.141 118.445 136.396 118.828 139.652C118.828 140.227 117.966 140.418 117.774 139.844Z" fill="black"/>
<path d="M180.588 167.42C184.131 165.313 187.29 169.143 185.375 172.495C184.897 173.452 184.322 174.122 183.652 174.888L183.556 172.59C187.099 175.654 186.237 180.25 182.12 182.166C181.45 182.453 178.29 183.41 178.29 182.261C178.29 181.974 178.481 181.783 178.768 181.783C181.162 181.687 184.418 179.293 183.46 176.612C183.173 175.942 182.503 175.176 181.928 174.888C181.258 174.505 181.067 173.739 181.45 173.069C182.216 172.207 184.035 171.25 184.035 169.622C183.843 168.186 182.407 167.707 181.067 168.186C180.492 168.473 180.109 167.707 180.588 167.42Z" fill="black"/>
<path d="M152.054 139.365C149.756 139.269 148.032 137.354 148.224 135.056L148.319 132.375C148.415 130.077 150.33 128.353 152.628 128.545C154.926 128.641 156.65 130.556 156.458 132.854L156.363 135.535C156.267 137.737 154.352 139.46 152.054 139.365Z" fill="black"/>
<path d="M192.365 140.801C190.258 140.705 188.631 138.886 188.726 136.78L188.822 134.29C188.918 132.183 190.737 130.556 192.844 130.651C194.95 130.747 196.578 132.567 196.482 134.673L196.387 137.163C196.291 139.269 194.471 140.897 192.365 140.801Z" fill="black"/>
<path d="M160.671 134.194C157.512 132.087 154.065 130.651 150.235 131.417C148.99 131.609 147.745 131.992 146.979 132.853C146.692 133.236 146.021 133.141 146.021 132.566C146.117 130.651 147.745 129.406 149.277 128.64C152.245 127.108 156.363 127.396 159.044 129.406C160.001 129.981 163.257 133.524 161.533 134.29C161.15 134.481 160.959 134.385 160.671 134.194Z" fill="black"/>
<path d="M188.056 134.673C188.056 130.651 193.035 129.215 196.1 130.651C197.823 131.417 199.068 132.949 199.547 134.769C199.738 135.343 198.876 135.822 198.493 135.343C196.866 133.428 194.089 132.471 191.886 133.62C191.216 134.003 191.12 134.29 190.929 134.673C190.929 136.588 188.152 136.492 188.056 134.673Z" fill="black"/>
<path d="M165.268 118.395C167.278 119.065 169.289 117.246 168.906 115.044C168.715 113.895 168.236 112.746 167.278 111.884C164.406 109.299 152.533 107.001 145.351 110.352C139.032 113.416 156.075 115.331 165.268 118.395Z" fill="black"/>
<path d="M193.898 119.927C192.27 120.502 190.546 118.778 190.834 116.767C190.929 115.714 191.312 114.661 192.078 113.895C194.376 111.597 202.228 109.777 207.207 113.32C211.516 116.289 201.366 117.15 193.898 119.927Z" fill="black"/>
<path d="M212.952 93.9783C214.771 93.2123 212.761 81.7221 214.388 80.6688C215.346 61.6143 217.644 67.9339 194.281 55.8692C156.554 36.3358 103.795 44.2832 84.1661 68.4126C67.5053 88.712 72.3887 99.3404 68.1756 113.703C64.0583 127.587 45.4825 127.97 54.0044 156.696C58.3132 171.25 40.9821 178.91 44.8122 203.422C71.5269 215.391 99.3906 221.041 127.829 222.764C135.585 203.71 111.647 199.401 111.36 170.963C111.36 169.048 111.455 167.228 111.647 165.505C85.1236 157.174 89.4325 128.832 101.401 127.3C109.732 126.247 114.136 130.938 116.339 134.864C116.53 135.439 116.817 135.918 117.105 136.492C120.743 142.716 139.989 137.067 152.916 122.034C166.8 105.947 165.747 107.192 172.736 97.5211C186.812 78.1793 200.217 90.7228 204.047 92.7335C215.729 98.6701 204.622 86.7969 205.771 88.329C210.654 94.9358 206.154 97.3296 212.952 93.9783Z" fill="black"/>
<path d="M117.104 136.3C116.817 135.822 116.53 135.247 116.338 134.673C116.625 135.247 116.913 135.822 117.104 136.3Z" fill="black"/>
<path d="M205.77 90.1482C208.164 104.032 226.07 92.542 217.835 67.3593C213.048 52.7093 195.621 49.4537 177.811 53.188C147.17 59.6034 196.866 52.2305 199.93 74.3491C201.462 85.6478 203.472 76.7429 205.77 90.1482Z" fill="black"/>
<path d="M193.323 151.717C193.323 151.717 194.472 158.228 202.036 161.483C203.951 162.249 205.962 161.004 205.962 158.898C205.866 158.898 193.802 152.483 193.323 151.717Z" fill="black"/>
<path d="M134.148 151.717C134.148 151.717 137.691 159.76 148.32 161.675C158.948 163.686 168.619 156.026 173.119 143.195C173.119 143.195 169.481 155.068 154.927 157.27C140.564 159.664 134.148 151.717 134.148 151.717Z" fill="black"/>
<path d="M175.226 133.811C174.939 147.504 163.928 158.515 150.618 158.515C137.309 158.515 126.68 147.504 126.68 133.811C126.776 120.023 137.787 108.724 151.288 108.724C164.789 108.724 175.609 120.023 175.226 133.811Z" stroke="black" stroke-width="3" stroke-miterlimit="10" stroke-linecap="round" stroke-linejoin="round"/>
<path d="M188.344 130.651C189.876 118.299 197.919 108.628 207.398 108.628C217.644 108.628 225.495 119.927 224.921 133.715C224.346 147.408 215.729 158.419 205.675 158.419C201.941 158.419 198.589 156.983 195.812 154.398" stroke="black" stroke-width="3" stroke-miterlimit="10" stroke-linecap="round" stroke-linejoin="round"/>
<path d="M126.967 131.13H113.37" stroke="black" stroke-width="3" stroke-miterlimit="10" stroke-linecap="round" stroke-linejoin="round"/>
<path d="M175.322 131.13C175.322 131.13 186.716 126.725 188.152 131.13" stroke="black" stroke-width="3" stroke-miterlimit="10" stroke-linecap="round" stroke-linejoin="round"/>
<path d="M275.956 81.0519C334.078 192.986 231.91 319.282 110.114 288.45C55.4402 274.853 11.4902 227.456 2.39382 171.824C-7.94736 116.48 17.0438 57.0183 63.7706 25.7075C127.828 -18.3383 216.59 -3.68828 262.455 59.3163C262.743 59.6035 262.647 60.0823 262.264 60.3696C261.977 60.6568 261.498 60.5611 261.21 60.1781C254.891 52.0392 247.71 44.6663 239.858 38.0594C226.931 27.048 211.803 18.4303 195.812 12.5895C114.423 -16.902 25.087 32.1228 7.27715 117.246C-12.8307 212.615 68.2709 300.419 164.98 287.301C239.571 277.917 295.011 209.072 288.883 134.194C287.542 116.097 282.755 98.1915 274.807 81.7222C274.616 81.4349 274.807 81.0519 275.094 80.8604C275.382 80.6689 275.765 80.7647 275.956 81.0519Z" fill="black"/>
</g>
</svg>
